<?xml version="1.0" encoding="UTF-8" standalone="no"?>
<!-- Created with Inkscape (http://www.inkscape.org/) -->

<svg
   xmlns:osb="http://www.openswatchbook.org/uri/2009/osb"
   xmlns:dc="http://purl.org/dc/elements/1.1/"
   xmlns:cc="http://creativecommons.org/ns#"
   xmlns:rdf="http://www.w3.org/1999/02/22-rdf-syntax-ns#"
   xmlns:svg="http://www.w3.org/2000/svg"
   xmlns="http://www.w3.org/2000/svg"
   xmlns:sodipodi="http://sodipodi.sourceforge.net/DTD/sodipodi-0.dtd"
   xmlns:inkscape="http://www.inkscape.org/namespaces/inkscape"
   width="122mm"
   height="145mm"
   viewBox="0 0 122 145"
   version="1.1"
   id="svg8"
   sodipodi:docname="logo_rework.svg"
   inkscape:version="0.92.4 (5da689c313, 2019-01-14)">
  <defs
     id="defs2">
    <linearGradient
       id="linearGradient5100"
       osb:paint="solid">
      <stop
         style="stop-color:#7fff4a;stop-opacity:1;"
         offset="0"
         id="stop5098" />
    </linearGradient>
    <linearGradient
       y2="67.381554"
       x2="185.91782"
       y1="67.381554"
       x1="53.601158"
       id="grad1"
       gradientTransform="scale(0.91454136,1.0934443)"
       gradientUnits="userSpaceOnUse">
      <stop
         id="stop2112"
         style="stop-color:#0084b0;stop-opacity:1"
         offset="0%" />
      <stop
         id="stop2114"
         style="stop-color:#00a356;stop-opacity:1"
         offset="100%" />
    </linearGradient>
  </defs>
  <sodipodi:namedview
     id="base"
     pagecolor="#ffffff"
     bordercolor="#666666"
     borderopacity="1.0"
     inkscape:pageopacity="0.0"
     inkscape:pageshadow="2"
     inkscape:zoom="0.7"
     inkscape:cx="355.70853"
     inkscape:cy="714.82775"
     inkscape:document-units="mm"
     inkscape:current-layer="layer1"
     showgrid="false"
     inkscape:window-width="2560"
     inkscape:window-height="1377"
     inkscape:window-x="1912"
     inkscape:window-y="-8"
     inkscape:window-maximized="1" />
  <metadata
     id="metadata5">
    <rdf:RDF>
      <cc:Work
         rdf:about="">
        <dc:format>image/svg+xml</dc:format>
        <dc:type
           rdf:resource="http://purl.org/dc/dcmitype/StillImage" />
        <dc:title></dc:title>
      </cc:Work>
    </rdf:RDF>
  </metadata>
  <g
     inkscape:label="Layer 1"
     inkscape:groupmode="layer"
     id="layer1"
     transform="translate(0,-152)">
    <g
       id="layer1-1"
       inkscape:label="Layer 1"
       transform="translate(-48.670836,-17.595799)"
       style="fill:#000000;fill-opacity:1" />
    <path
       id="path2396-4-9-3"
       style="fill:#2ed573;fill-opacity:1;stroke-width:0.26458332;stroke:none;stroke-opacity:1"
       d="m 70.239168,204.17217 c 1.11601,-0.0699 0.92163,2.30049 0.92643,3.96875 h -1.85208 c 0.0118,-1.18103 -0.12432,-3.93352 0.92565,-3.96875 z m -2.72852,0.0236 c 1.11601,-0.0699 0.92163,2.30049 0.92643,3.96875 h -1.85208 c 0.0118,-1.18103 -0.12432,-3.93352 0.92565,-3.96875 z m -2.77576,-0.0118 c 1.11601,-0.0699 0.92163,2.30049 0.92643,3.96875 h -1.85208 c 0.0118,-1.18103 -0.12432,-3.93352 0.92565,-3.96875 z m -2.64583,0.0591 c 1.11601,-0.0699 0.92163,2.30048 0.92643,3.96875 h -1.85208 c 0.0118,-1.18104 -0.12432,-3.93352 0.92565,-3.96875 z m -2.62221,-0.0472 c 1.11601,-0.0699 0.92163,2.30049 0.92643,3.96875 h -1.85208 c 0.0118,-1.18103 -0.12432,-3.93352 0.92565,-3.96875 z m -2.79939,0.0118 c 1.11601,-0.0699 0.92163,2.30048 0.92643,3.96875 h -1.85208 c 0.0118,-1.18104 -0.12432,-3.93352 0.92565,-3.96875 z m -2.72566,0.004 c 1.11601,-0.0699 0.92163,2.30048 0.92643,3.96875 h -1.852081 c 0.0118,-1.18104 -0.12432,-3.93352 0.925651,-3.96875 z m -13.180195,29.2393 c -0.0668,1.11621 2.30287,0.91559 3.97123,0.9153 -6.9e-4,-0.61731 -0.005,-1.23468 -0.005,-1.85206 -1.18097,0.0143 -3.9339,-0.11312 -3.96596,0.93739 z m 0.0157,-2.72852 c -0.0669,1.11616 2.30335,0.91464 3.97139,0.9152 -6.8e-4,-0.61734 -0.005,-1.23467 -0.005,-1.85201 -1.18112,0.0143 -3.93382,-0.11311 -3.966,0.9373 z m -0.01977,-2.7757 c -0.0669,1.11621 2.30333,0.91467 3.97145,0.91531 -6.9e-4,-0.6174 -0.005,-1.23471 -0.006,-1.85219 -1.18094,0.0143 -3.93366,-0.11301 -3.96596,0.93733 z m 0.05153,-2.64597 c -0.0669,1.1161 2.30321,0.91461 3.97134,0.91517 -6.9e-4,-0.61729 -0.005,-1.23467 -0.005,-1.85203 -1.18105,0.0143 -3.93371,-0.11321 -3.96604,0.93737 z m -0.05468,-2.62201 c -0.0669,1.11611 2.30291,0.91553 3.97134,0.91523 -6.8e-4,-0.61746 -0.005,-1.23481 -0.006,-1.85221 -1.18103,0.0143 -3.93387,-0.11302 -3.96598,0.93736 z m 0.0038,-2.79952 c -0.0668,1.11623 2.30292,0.91559 3.97137,0.91524 -6.9e-4,-0.61742 -0.005,-1.23466 -0.006,-1.85213 -1.181,0.0143 -3.9338,-0.11312 -3.96594,0.93732 z m -0.004,-2.72559 c -0.0669,1.1162 2.30327,0.91464 3.97136,0.91517 -6.9e-4,-0.61732 -0.005,-1.23466 -0.005,-1.85202 -1.18097,0.0143 -3.93394,-0.11291 -3.96604,0.93734 z m 0.0092,-2.73251 c -0.067,1.1162 2.30292,0.91553 3.97138,0.91532 -6.9e-4,-0.61739 -0.005,-1.23477 -0.005,-1.85211 -1.18103,0.0143 -3.9339,-0.11311 -3.96593,0.93732 z m 29.460765,29.57094 c 1.11601,0.0699 0.92163,-2.30049 0.92643,-3.96875 h -1.85208 c 0.0118,1.18103 -0.12432,3.93352 0.92565,3.96875 z m -2.72852,-0.0236 c 1.11601,0.0699 0.92163,-2.30049 0.92643,-3.96875 h -1.85208 c 0.0118,1.18103 -0.12432,3.93352 0.92565,3.96875 z m -2.77576,0.0118 c 1.11601,0.0699 0.92163,-2.30049 0.92643,-3.96875 h -1.85208 c 0.0118,1.18103 -0.12432,3.93352 0.92565,3.96875 z m -2.64583,-0.0591 c 1.11601,0.0699 0.92163,-2.30048 0.92643,-3.96875 h -1.85208 c 0.0118,1.18104 -0.12432,3.93352 0.92565,3.96875 z m -2.62221,0.0472 c 1.11601,0.0699 0.92163,-2.30049 0.92643,-3.96875 h -1.85208 c 0.0118,1.18103 -0.12432,3.93352 0.92565,3.96875 z m -2.79939,-0.0118 c 1.11601,0.0699 0.92163,-2.30048 0.92643,-3.96875 h -1.85208 c 0.0118,1.18104 -0.12432,3.93352 0.92565,3.96875 z m -2.72566,-0.004 c 1.11601,0.0699 0.92163,-2.30048 0.92643,-3.96875 H 53.00113 c 0.0118,1.18104 -0.12432,3.93352 0.925648,3.96875 z m -2.732421,-0.017 c 1.116003,0.0699 0.921623,-2.30048 0.926423,-3.96875 h -1.852073 c 0.01176,1.18104 -0.124315,3.93352 0.92565,3.96875 z m 29.541701,-10.21174 c 0.0668,1.11621 -2.30287,0.91559 -3.97123,0.9153 6.9e-4,-0.61731 0.005,-1.23468 0.005,-1.85206 1.18097,0.0143 3.9339,-0.11312 3.96596,0.93739 z m -0.0157,-2.72852 c 0.0669,1.11616 -2.30335,0.91464 -3.97139,0.9152 6.8e-4,-0.61734 0.005,-1.23467 0.005,-1.85201 1.18112,0.0143 3.93382,-0.11311 3.966,0.9373 z m 0.0198,-2.7757 c 0.0669,1.11621 -2.30333,0.91467 -3.97145,0.91531 6.9e-4,-0.6174 0.005,-1.23471 0.006,-1.85219 1.18094,0.0143 3.93366,-0.11301 3.96596,0.93733 z m -0.0515,-2.64597 c 0.0669,1.1161 -2.30321,0.91461 -3.97134,0.91517 6.9e-4,-0.61729 0.005,-1.23467 0.005,-1.85203 1.18105,0.0143 3.93371,-0.11321 3.96604,0.93737 z m 0.0547,-2.62201 c 0.0669,1.11611 -2.30291,0.91553 -3.97134,0.91523 6.8e-4,-0.61746 0.005,-1.23481 0.006,-1.85221 1.18103,0.0143 3.93387,-0.11302 3.96598,0.93736 z m -0.004,-2.79952 c 0.0668,1.11623 -2.30292,0.91559 -3.97137,0.91524 6.9e-4,-0.61742 0.005,-1.23466 0.006,-1.85213 1.181,0.0143 3.9338,-0.11312 3.96594,0.93732 z m 0.004,-2.72559 c 0.0669,1.1162 -2.30327,0.91464 -3.97136,0.91517 6.9e-4,-0.61732 0.005,-1.23466 0.005,-1.85202 1.18097,0.0143 3.93394,-0.11291 3.96604,0.93734 z m -0.009,-2.73251 c 0.067,1.1162 -2.30292,0.91553 -3.97138,0.91532 6.9e-4,-0.61739 0.005,-1.23477 0.005,-1.85211 1.18103,0.0143 3.9339,-0.11311 3.96593,0.93732 z m -2.14053,-12.79713 c -5.86428,-0.82537 -8.76395,-0.58178 -15.73681,-0.71148 l 45.980942,-38.511 11.02097,6.35138 -40.023392,33.32866 c -0.17362,-0.0119 -0.73239,-0.21777 -1.24171,-0.45756 z m -27.384377,2.33123 c 1.116009,-0.0699 0.921629,2.30048 0.926429,3.96875 h -1.852079 c 0.01176,-1.18104 -0.124315,-3.93352 0.92565,-3.96875 z m 32.411457,13.13959 v -7.76249 l 37.865632,-31.57084 c 0.31817,5.38008 0.22881,9.49703 0.25021,15.30256 l -37.993562,31.79326 c -0.0672,0 -0.12225,-3.49312 -0.12225,-7.76249 z m -20.77114,-41.97683 c 4.30568,-3.77828 7.68788,-6.53503 12.38873,-10.45311 l -18.46103,-0.1392 c -3.925348,3.85333 -7.099714,6.88521 -10.462887,10.654 0,0.30961 5.860459,0.15127 16.535187,-0.0616 z m -16.598967,13.87994 c -2.351221,-0.15214 -4.352711,-0.12367 -6.89076,-0.12367 -3.63494,3.61418 -7.269885,7.22834 -10.90483,10.84251 1.675693,-0.003 3.351387,-0.005 5.02708,-0.008 z M 3.0092416,225.50596 17.259273,213.46658 c -2.740152,-0.0189 -4.930379,-0.0959 -7.8170914,0.0222 -1.052119,1.14428 -2.436046,2.29342 -2.54643,3.87909 -0.003,0.90193 -0.15125,1.22479 -0.81813,1.78594 -1.03047,0.86708 -1.83935,0.86708 -2.86982,0 -0.6394,-0.53802 -0.81279,-0.89281 -0.80817,-1.65365 0.009,-1.50021 0.75752,-2.27212 2.22977,-2.29979 2.281698,-0.71318 2.610652,-1.40039 4.26199,-3.0345 H 18.961841 l 12.419391,-10.60021 c -9.268366,-0.20633 -14.115069,-0.24771 -26.0884104,-0.24771 l -0.29789,0.6538 c -0.33349,0.73192 -1.72337,1.30787 -2.49465,1.03376 -1.07,-0.38028 -1.69403005,-1.21828 -1.69403005,-2.27487 0,-2.20602 2.45347005,-3.15146 3.96875005,-1.52936 l 0.74147,0.79375 H 26.608091 c 3.705433,-3.88157 6.821254,-6.85169 10.44608,-10.65189 -5.624892,-0.30146 -9.926814,-0.19601 -15.99485,-0.19601 l -1.90181,1.88911 c -1.75699,1.74526 -1.89088,1.95642 -1.75837,2.773 0.1777,1.095 -0.37431,2.01053 -1.49114,2.47314 -1.14144,0.4728 -2.34173,-0.0478 -2.83565,-1.22995 -0.7253,-1.73588 1.37664,-3.24971 2.18365,-3.1362 2.400725,-0.86373 3.107191,-1.9385 5.27342,-4.09202 h 27.40461 c 4.417199,-3.6373 9.095787,-7.61499 12.751767,-10.71563 -11.180407,-0.0455 -22.360817,-0.0909 -33.541227,-0.13626 -1.947123,1.94161 -3.894257,3.88322 -5.84139,5.82483 -8.679354,-0.11983 -9.227461,-0.11674 -15.8144614,-0.004 -0.388503,1.08339 -2.090841,1.69621 -2.916871,1.53831 -1.00079,-0.19132 -1.87385705,-1.14989 -1.84341705,-2.22373 0.0613,-2.16115 2.54312005,-3.03625 4.04657005,-1.4268 l 0.74148,0.79375 H 20.791321 c 1.934256,-1.94028 3.868518,-3.88056 5.80278,-5.82083 h 17.47649 c 3.724299,-3.64985 6.810485,-6.69085 10.446077,-10.65235 -12.998727,-0.10919 -22.744976,-0.19602 -36.650627,-0.19602 -2.994716,2.99861 -5.989438,5.99722 -8.9841594,8.99583 h -1.5778 c -1.41668,0 -1.66704,0.0865 -2.45136,0.84667 -1.163,1.12722 -2.51093,1.17355 -3.41928,0.11754 -0.87735005,-1.01999 -0.83246005,-2.25603 0.11491,-3.16366 1.03116,-0.98791 2.22698,-0.95761 3.26738,0.0828 0.6776,0.6776 0.99426,0.79375 2.16408,0.79375 h 1.37034 c 7.9335914,-8.39522 11.1785944,-10.68818 15.9841194,-16.40761 -0.10421,-0.41524 -0.12393,-1.31538 0.13342,-1.81231 0.78194,-1.51212 2.24604,-1.78862 3.57036,-0.67427 1.12338,0.94526 1.12644,2.21833 0.008,3.33675 -0.69816,0.69816 -1.40962,0.38307 -2.2584,0.24486 -2.189469,2.02434 -3.139244,2.85427 -6.19598,6.11379 8.603337,0.22313 15.833884,0.21973 25.13542,0.009 0,-0.10676 -1.26466,-1.46271 -2.81035,-3.01321 -2.69209,-2.70046 -2.85075,-2.81409 -3.77032,-2.70025 -2.21191,0.27383 -3.48678,-2.59068 -1.79909,-4.04238 1.03371,-0.88915 2.14026,-0.82816 3.14157,0.17315 0.69183,0.69183 0.78729,0.94987 0.67131,1.81459 -0.13336,0.99429 -0.0876,1.05562 3.3485,4.48515 l 3.48371,3.47707 h 9.251677 c 1.78291,-2.00198 6.85729,-6.11998 6.879,-8.10292 0.006,-0.99643 0.14023,-1.33035 0.74236,-1.84828 1.01903,-0.87653 2.14018,-0.82556 3.10699,0.14126 1.05236,1.05236 1.0173,1.8795 -0.0567,2.95353 -0.86248,0.76587 -1.50678,0.21681 -2.12791,0.70306 -2.29384,1.79576 -4.16061,3.72957 -6.30237,5.95923 6.47443,0.29752 11.42131,0.19412 18.40335,0.19412 4.39252,-3.57705 8.45001,-7.05512 12.67044,-10.58333 2.75634,0.0471 5.38992,0.13225 8.28298,-0.0244 1.94306,1.42496 3.111872,2.89211 4.830842,4.74803 -18.595442,15.60742 -35.321132,29.5721 -52.011559,43.6223 -2.792517,0.18772 -6.452493,-0.0804 -8.54941,0.97778 -1.73255,0.88467 -2.79403,1.97448 -3.62847,3.72531 -0.852357,2.35103 -0.632926,3.59269 -0.63609,6.12531 l -30.6920694,25.6677 c -1.040026,-0.56383 -4.309146,-11.11426 -4.14624,-12.23528 z m 67.5208464,-11.4812 c -0.4427,-0.48918 -0.44491,-0.56487 -0.0349,-1.19063 0.24082,-0.36753 0.6052,-0.66823 0.80973,-0.66823 0.47391,0 1.20342,0.72175 1.20342,1.19062 0,0.45331 -0.72362,1.19063 -1.16851,1.19063 -0.18534,0 -0.54971,-0.23508 -0.80973,-0.52239 z m 2.12256,0.6667 c 0.77258,-0.77257 0.83229,-1.71195 0.1615,-2.54035 -1.02653,-1.26771 -3.22031,-0.46164 -3.21218,1.18027 0.005,0.94426 0.18498,1.27542 0.92199,1.69335 0.82282,0.4666 1.42275,0.37267 2.12869,-0.33327 z m -23.374727,-0.46181 c -0.92014,-0.92014 0.40067,-2.63044 1.39445,-1.80567 0.78929,0.65505 0.402295,2.06411 -0.588655,2.06411 -0.23283,0 -0.631175,-0.0838 -0.805795,-0.25844 z m 1.665367,0.75981 c 0.78249,-0.41188 0.83521,-0.95835 0.83997,-1.94715 0.005,-1.08608 -1.022987,-1.77587 -2.017637,-1.54154 -1.55816,0.36708 -2.06614,2.07407 -0.94952,3.19069 0.71843,0.71844 1.261747,0.75353 2.127187,0.298 z m 15.18227,8.22279 c -0.018,-0.0364 -0.0129,-0.66063 -0.061,-1.35835 l -0.0164,-1.17409 1.64377,0.007 c 0.57271,0.0193 0.8762,-0.0181 1.56108,0.11334 0.19376,0.24974 0.31168,0.62718 0.29711,0.99597 -0.0298,0.46909 -0.0459,1.11404 -0.26458,1.25272 -0.30606,0.19406 -3.07384,0.33707 -3.15993,0.16327 z m -0.0995,3.44004 v -1.91869 l 1.24605,-0.0802 1.24605,-0.0802 0.58067,1.99843 c 0.51001,1.75524 0.6562,1.99843 1.20135,1.99843 0.34137,0 0.61889,-0.0298 0.6167,-0.0661 -0.002,-0.0364 -0.2948,-1.00243 -0.65026,-2.14677 -0.5822,-1.87429 -0.60584,-2.12106 -0.23845,-2.48845 0.99125,-0.99125 1.02376,-2.71167 0.0706,-3.73479 -0.60298,-0.64723 -1.73203,-0.88518 -3.6758,-0.77469 l -1.45521,0.0827 -0.0724,4.56406 -0.0724,4.56406 0.60156,5.3e-4 c 0.57043,5.3e-4 0.60156,-0.0988 0.60156,-1.91823 z m -4.63021,-2.05098 v -3.96875 h 1.19063 c 1.09361,0 1.19062,-0.0539 1.19062,-0.66145 v -0.66146 h -2.91041 -2.91042 v 0.66146 c 0,0.60756 0.097,0.66145 1.19062,0.66145 h 1.19063 v 3.96875 c 0,3.79236 0.0235,3.96875 0.52917,3.96875 0.50565,0 0.52916,-0.17639 0.52916,-3.96875 z m -9.789577,1.85209 v -2.11667 h 1.984367 1.98438 v 2.11667 c 0,2.05242 0.0191,2.11666 0.62917,2.11666 h 0.62917 l -0.0339,-4.56406 c -0.0325,-4.37639 -0.0556,-4.56406 -0.56302,-4.56406 -0.46918,0 -0.53804,0.20247 -0.6074,1.78594 l -0.0782,1.78593 h -1.9602 -1.960197 l -0.0782,-1.7832 c -0.0636,-1.45071 -0.16457,-1.79966 -0.54125,-1.87148 -0.42676,-0.0814 -0.46302,0.27588 -0.46302,4.56133 0,4.47321 0.0201,4.6496 0.52916,4.6496 0.48507,0 0.52917,-0.17639 0.52917,-2.11666 z m 19.377697,9.32658 c -0.18357,-0.0618 -0.40554,-0.32333 -0.55451,-0.60169 -0.60841,-1.13682 0.98291,-2.18604 1.81146,-1.18771 0.69031,0.83178 -0.22601,2.13625 -1.25695,1.7894 z m 1.78897,0.19842 c 1.10415,-1.10415 0.21121,-3.175 -1.36904,-3.175 -1.53029,0 -2.4095,2.06956 -1.36808,3.22031 0.59244,0.65463 2.06149,0.63031 2.73712,-0.0453 z m -23.234957,-0.2939 c -0.46601,-0.17586 -0.59294,-0.39996 -0.52916,-0.93423 0.17668,-1.48003 1.84075,-1.49631 2.01799,-0.0198 0.10081,0.83979 -0.60056,1.28921 -1.48883,0.95399 z m 1.84902,0.38518 c 0.654629,-0.59244 0.630309,-2.06149 -0.0453,-2.73712 -1.13923,-1.13923 -3.175,-0.259 -3.175,1.37281 0,1.52688 2.07111,2.40432 3.22031,1.36431 z m -3.5926,0.89551 -2.27355,-2.1882 v -10.71607 -10.71608 c 1.478287,-1.47061 2.956573,-2.94121 4.43486,-4.41182 l 10.661747,-0.0372 10.66174,-0.0372 2.33437,2.33885 2.33437,2.33885 v 10.49896 10.49896 l -2.32034,2.30959 -2.32034,2.30959 H 60.687598 50.067951 Z m -37.9637794,8.77565 28.0173194,-23.61302 -0.01,7.91748 -0.01,7.91747 -22.11552,18.46929 z m 10.0256494,17.63576 20.35832,-17.28493 c 0.899094,-0.98375 1.543278,1.21369 3.29837,1.13152 4.580483,0.0882 9.160969,0.17639 13.741447,0.26458 l -30.295897,25.26114 z m 40.216667,34.05628 c -1.00098,-0.34932 -1.5875,-1.22062 -1.5875,-2.35831 0,-0.95607 0.12606,-1.22978 0.79375,-1.72343 l 0.79375,-0.58684 v -8.36715 h -5.96732 c -1.412468,1.44766 -3.50197,3.2492 -3.610187,4.86817 -0.0646,1.04921 -0.21567,1.39737 -0.79269,1.82662 -1.96458,1.46145 -4.62399,-0.59198 -3.5233,-2.72048 0.51345,-0.99291 1.24874,-1.38706 2.40216,-1.28769 2.304411,-1.09155 2.966645,-1.96748 5.020747,-4.00954 h 26.73941 c 2.42013,-2.41699 9.21031,-8.36131 8.76987,-9.26856 -11.45376,-0.0909 -18.13642,-0.19815 -32.0814,-0.2553 l -15.700717,13.16578 -9.30617,-8.00758 37.447287,-31.29491 4.23084,-0.10608 c 4.24439,0.0274 7.94084,-1.83879 9.52373,-5.33047 0.47846,-2.29521 0.39565,-4.13687 0.39565,-6.48567 l 37.385882,-31.36835 c 0.52611,-0.50055 0.5272,-0.49385 0.34526,2.11667 -0.26606,3.81742 -2.43804,12.7466 -3.01067,15.83775 l -30.322782,25.73533 c 5.76918,0.17545 9.48312,0.0718 15.327022,0.0718 0.88116,-1.20644 4.17252,-3.31568 3.68236,-4.57012 -0.32312,-1.28739 1.0729,-2.83822 2.5549,-2.83822 0.29539,0 0.8851,0.34803 1.31047,0.7734 0.9668,0.9668 1.01779,2.08797 0.14131,3.10694 -0.50722,0.58968 -0.86545,0.73923 -1.81343,0.75705 -2.62305,1.12063 -2.7958,2.13778 -5.253,4.09386 H 86.018648 l -12.45196,10.61827 c 8.57867,0.35145 15.12373,0.22965 24.37583,0.22965 l 0.66789,-0.79375 c 1.37526,-1.63439 4.060442,-0.65575 4.060442,1.47987 0,2.08725 -2.705742,3.04052 -4.060442,1.43055 l -0.66789,-0.79375 h -10.49624 c -2.12474,2.19812 -3.95841,3.55555 -4.61918,5.61518 0,1.43797 -0.47921,2.26479 -1.50975,2.6049 -1.16283,0.38377 -2.18544,-0.0126 -2.82483,-1.09503 -0.96654,-1.63622 0.33235,-3.55536 2.28055,-3.36957 2.25185,-0.90157 2.85134,-1.77468 4.81891,-3.75548 h -14.1774 l -12.35588,10.60797 c 10.49072,0.37776 18.13962,0.23994 29.64151,0.23994 l 0.74148,-0.79375 c 0.96704,-1.03522 2.36752,-1.09611 3.31931,-0.14431 1.46322,1.46321 0.54986,3.84848 -1.47364,3.84848 -4.06951,2.9523 -5.56188,4.6028 -10.074,9.12812 -3.82051,0.0882 -7.64101,0.1764 -11.46152,0.26459 0.98964,0.89784 2.20108,2.49456 3.4351,2.51354 1.67442,0 2.761,0.94038 2.761,2.38953 0,0.59866 -1.27448,2.06212 -1.85209,2.1267 -1.01018,0.11296 -1.56945,-0.0724 -2.23933,-0.7423 -0.59736,-0.59737 -0.70134,-0.89283 -0.59451,-1.68934 0.4046,-1.57564 -1.71639,-2.7989 -3.66089,-4.73042 h -6.20527 v 8.25436 l 0.79375,0.74147 c 0.59308,0.55401 0.79375,0.97848 0.79375,1.6789 0,1.51367 -1.60574,2.81629 -2.91041,2.361 z"
       inkscape:connector-curvature="0"
       sodipodi:nodetypes="ccccccccccccccccccccccccccccccccccccccccccccccccccccccccccccccccccccccccccccccccccccccccccccccccccccccccccccccccccccccccccccccccccccccccccccccccccccccccccccccccccccccccccccccccccccccscccccsccccccccccccccccccccsccccscccccccccscsccccccccccccccccccccccssscccccccscsscccccccccccccccccccscssccccccccscsscccsscsssccccssccsccccccsscccccccsccccccccccscccccccccccccccccccccccccccccccsccccccccccccccccccccccccsssccccccsccccsccccccccccccscccccccscc" />
  </g>
</svg>
